<?xml version="1.0" encoding="UTF-8"?>
<svg xmlns="http://www.w3.org/2000/svg" xmlns:xlink="http://www.w3.org/1999/xlink" width="512px" height="512px" viewBox="0 0 512 512" version="1.1">
<g id="surface1">
<path style=" stroke:none;fill-rule:nonzero;fill:rgb(100%,100%,100%);fill-opacity:1;" d="M 256 512 C 397.382812 512 512 397.382812 512 256 C 512 114.617188 397.382812 0 256 0 C 114.617188 0 0 114.617188 0 256 C 0 397.382812 114.617188 512 256 512 Z M 256 512 "/>
<path style=" stroke:none;fill-rule:nonzero;fill:rgb(52.549022%,66.274512%,100%);fill-opacity:1;" d="M 400.890625 192.136719 C 390.828125 148.179688 351.496094 115.394531 304.484375 115.394531 L 202.667969 115.394531 C 148.035156 115.394531 103.757812 159.671875 103.757812 214.304688 C 103.757812 241.648438 114.839844 266.375 132.789062 284.296875 Z M 400.890625 192.136719 "/>
<path style=" stroke:none;fill-rule:nonzero;fill:rgb(34.117648%,54.901963%,100%);fill-opacity:1;" d="M 132.789062 284.296875 C 137.039062 301.605469 145.9375 317.574219 158.738281 330.375 L 261.953125 433.589844 C 263.117188 434.753906 264.6875 435.394531 266.316406 435.394531 C 269.722656 435.394531 272.484375 432.628906 272.484375 429.226562 L 272.484375 359.757812 L 330.667969 359.757812 C 384.660156 359.757812 428.527344 316.5 429.546875 262.769531 C 430.070312 235.335938 418.957031 210.347656 400.890625 192.136719 Z M 132.789062 284.296875 "/>
<path style=" stroke:none;fill-rule:nonzero;fill:rgb(0%,34.117648%,80.000001%);fill-opacity:1;" d="M 304.484375 313.210938 C 359.117188 313.210938 403.394531 268.9375 403.394531 214.304688 C 403.394531 206.679688 402.519531 199.261719 400.890625 192.136719 C 382.449219 173.515625 356.730469 161.9375 328.71875 161.9375 L 228.847656 161.9375 C 174.214844 161.9375 129.9375 206.214844 129.9375 260.847656 C 129.9375 268.820312 130.898438 276.675781 132.789062 284.296875 C 150.679688 302.15625 175.378906 313.210938 202.667969 313.210938 Z M 304.484375 313.210938 "/>
</g>
</svg>
